<?xml version="1.0" encoding="UTF-8" standalone="no"?>
<!-- Created with Inkscape (http://www.inkscape.org/) -->

<svg
   xmlns:dc="http://purl.org/dc/elements/1.1/"
   xmlns:cc="http://creativecommons.org/ns#"
   xmlns:rdf="http://www.w3.org/1999/02/22-rdf-syntax-ns#"
   xmlns:svg="http://www.w3.org/2000/svg"
   xmlns="http://www.w3.org/2000/svg"
   xmlns:sodipodi="http://sodipodi.sourceforge.net/DTD/sodipodi-0.dtd"
   xmlns:inkscape="http://www.inkscape.org/namespaces/inkscape"
   width="120.18444"
   height="379.99997"
   viewBox="0 0 31.7988 100.54166"
   version="1.1"
   id="svg85367"
   inkscape:version="0.92.2 (5c3e80d, 2017-08-06)"
   sodipodi:docname="Automaton.svg">
  <defs
     id="defs85361" />
  <sodipodi:namedview
     id="base"
     pagecolor="#ffffff"
     bordercolor="#666666"
     borderopacity="1.0"
     inkscape:pageopacity="0.0"
     inkscape:pageshadow="2"
     inkscape:zoom="2"
     inkscape:cx="-172.77831"
     inkscape:cy="187.86379"
     inkscape:document-units="mm"
     inkscape:current-layer="layer3"
     showgrid="false"
     fit-margin-top="0"
     fit-margin-left="0"
     fit-margin-right="0"
     fit-margin-bottom="0"
     units="px"
     inkscape:window-width="1920"
     inkscape:window-height="1061"
     inkscape:window-x="-4"
     inkscape:window-y="-4"
     inkscape:window-maximized="1"
     inkscape:snap-bbox="true"
     inkscape:bbox-nodes="false"
     inkscape:object-nodes="true"
     inkscape:snap-page="false"
     inkscape:object-paths="false"
     inkscape:snap-bbox-edge-midpoints="false"
     inkscape:bbox-paths="false"
     inkscape:snap-bbox-midpoints="true"
     inkscape:snap-intersection-paths="false"
     inkscape:snap-smooth-nodes="false"
     inkscape:snap-midpoints="false"
     inkscape:snap-object-midpoints="true"
     inkscape:snap-center="false"
     inkscape:snap-others="true"
     inkscape:snap-global="false"
     inkscape:snap-to-guides="true" />
  <metadata
     id="metadata85364">
    <rdf:RDF>
      <cc:Work
         rdf:about="">
        <dc:format>image/svg+xml</dc:format>
        <dc:type
           rdf:resource="http://purl.org/dc/dcmitype/StillImage" />
        <dc:title />
      </cc:Work>
    </rdf:RDF>
  </metadata>
  <g
     inkscape:groupmode="layer"
     id="layer4"
     inkscape:label="plate"
     style="display:inline"
     sodipodi:insensitive="true">
    <path
       inkscape:connector-curvature="0"
       id="path65292-2"
       d="M 0.05024939,0.11721047 H 31.788819 V 100.51333 H 0.05024939 Z m 0,0"
       style="fill:#4d4d4d;fill-opacity:1;fill-rule:nonzero;stroke:none;stroke-width:0.27640021" />
  </g>
  <g
     inkscape:groupmode="layer"
     id="layer3"
     inkscape:label="decs"
     style="display:inline">
    <rect
       style="fill:#808080;stroke-width:0.25390878"
       id="rect3911"
       width="25.857349"
       height="5.7701693"
       x="2.724261"
       y="80.391747"
       ry="2.7559016" />
    <rect
       style="fill:#0088aa;stroke-width:0.38777611"
       id="rect3921"
       width="58"
       height="6"
       x="21.315269"
       y="-15.090366"
       ry="2.8656721"
       transform="rotate(90)" />
    <rect
       transform="rotate(90)"
       ry="2.8656721"
       y="-21.969538"
       x="21.315269"
       height="6"
       width="58"
       id="rect3923"
       style="fill:#c83737;stroke-width:0.38777617" />
    <g
       aria-label="VALUE"
       style="font-style:normal;font-variant:normal;font-weight:bold;font-stretch:normal;font-size:3.52777767px;line-height:1.25;font-family:'DejaVu Sans';-inkscape-font-specification:'DejaVu Sans, Bold';font-variant-ligatures:normal;font-variant-caps:normal;font-variant-numeric:normal;font-feature-settings:normal;text-align:start;letter-spacing:0px;word-spacing:0px;writing-mode:lr-tb;text-anchor:start;fill:#f2f2f2;fill-opacity:1;stroke:none;stroke-width:0.26458332"
       id="text4029">
      <path
         d="m 9.7497856,81.965971 h 0.6666264 l 0.682128,1.898248 0.680407,-1.898248 h 0.666626 l -0.952569,2.571764 h -0.790649 z"
         style="font-style:normal;font-variant:normal;font-weight:bold;font-stretch:normal;font-size:3.52777767px;font-family:'DejaVu Sans';-inkscape-font-specification:'DejaVu Sans, Bold';font-variant-ligatures:normal;font-variant-caps:normal;font-variant-numeric:normal;font-feature-settings:normal;text-align:start;writing-mode:lr-tb;text-anchor:start;fill:#f2f2f2;stroke-width:0.26458332"
         id="path51" />
      <path
         d="m 14.104386,84.069202 h -1.036974 l -0.163642,0.468533 h -0.666626 l 0.952569,-2.571764 h 0.79065 l 0.952569,2.571764 h -0.666626 z m -0.871609,-0.477146 h 0.704522 l -0.3514,-1.023193 z"
         style="font-style:normal;font-variant:normal;font-weight:bold;font-stretch:normal;font-size:3.52777767px;font-family:'DejaVu Sans';-inkscape-font-specification:'DejaVu Sans, Bold';font-variant-ligatures:normal;font-variant-caps:normal;font-variant-numeric:normal;font-feature-settings:normal;text-align:start;writing-mode:lr-tb;text-anchor:start;fill:#f2f2f2;stroke-width:0.26458332"
         id="path53" />
      <path
         d="m 15.272274,81.965971 h 0.663181 v 2.070503 h 1.164442 v 0.501261 h -1.827623 z"
         style="font-style:normal;font-variant:normal;font-weight:bold;font-stretch:normal;font-size:3.52777767px;font-family:'DejaVu Sans';-inkscape-font-specification:'DejaVu Sans, Bold';font-variant-ligatures:normal;font-variant-caps:normal;font-variant-numeric:normal;font-feature-settings:normal;text-align:start;writing-mode:lr-tb;text-anchor:start;fill:#f2f2f2;stroke-width:0.26458332"
         id="path55" />
      <path
         d="m 17.394452,81.965971 h 0.663181 v 1.54168 q 0,0.318672 0.103353,0.456476 0.105075,0.136081 0.341065,0.136081 0.237711,0 0.341064,-0.136081 0.105075,-0.137804 0.105075,-0.456476 v -1.54168 h 0.663181 v 1.54168 q 0,0.546048 -0.273885,0.813043 -0.273885,0.266995 -0.835435,0.266995 -0.559828,0 -0.833714,-0.266995 -0.273885,-0.266995 -0.273885,-0.813043 z"
         style="font-style:normal;font-variant:normal;font-weight:bold;font-stretch:normal;font-size:3.52777767px;font-family:'DejaVu Sans';-inkscape-font-specification:'DejaVu Sans, Bold';font-variant-ligatures:normal;font-variant-caps:normal;font-variant-numeric:normal;font-feature-settings:normal;text-align:start;writing-mode:lr-tb;text-anchor:start;fill:#f2f2f2;stroke-width:0.26458332"
         id="path57" />
      <path
         d="m 20.260772,81.965971 h 1.789727 v 0.501262 h -1.126547 v 0.478868 h 1.059367 v 0.501261 h -1.059367 v 0.589112 h 1.164443 v 0.501261 h -1.827623 z"
         style="font-style:normal;font-variant:normal;font-weight:bold;font-stretch:normal;font-size:3.52777767px;font-family:'DejaVu Sans';-inkscape-font-specification:'DejaVu Sans, Bold';font-variant-ligatures:normal;font-variant-caps:normal;font-variant-numeric:normal;font-feature-settings:normal;text-align:start;writing-mode:lr-tb;text-anchor:start;fill:#f2f2f2;stroke-width:0.26458332"
         id="path59" />
    </g>
    <rect
       ry="2.7559016"
       y="87.726051"
       x="2.724261"
       height="5.7701693"
       width="25.857349"
       id="rect4212"
       style="fill:#808080;stroke-width:0.25390878" />
    <g
       aria-label="COUNT"
       style="font-style:normal;font-variant:normal;font-weight:bold;font-stretch:normal;font-size:3.52777767px;line-height:1.25;font-family:'DejaVu Sans';-inkscape-font-specification:'DejaVu Sans, Bold';font-variant-ligatures:normal;font-variant-caps:normal;font-variant-numeric:normal;font-feature-settings:normal;text-align:start;letter-spacing:0px;word-spacing:0px;writing-mode:lr-tb;text-anchor:start;fill:#f2f2f2;fill-opacity:1;stroke:none;stroke-width:0.26458332"
       id="text4033">
      <path
         d="m 11.295772,91.754045 q -0.18259,0.09474 -0.380683,0.142972 -0.198093,0.04823 -0.413411,0.04823 -0.6425104,0 -1.0180258,-0.35829 -0.3755154,-0.360012 -0.3755154,-0.974962 0,-0.616672 0.3755154,-0.974962 0.3755154,-0.360012 1.0180258,-0.360012 0.215318,0 0.413411,0.04823 0.198093,0.04823 0.380683,0.142971 v 0.532268 q -0.184312,-0.125746 -0.363457,-0.184313 -0.179145,-0.05857 -0.377238,-0.05857 -0.354845,0 -0.5581056,0.227376 -0.2032606,0.227376 -0.2032606,0.627007 0,0.397909 0.2032606,0.625285 0.2032606,0.227376 0.5581056,0.227376 0.198093,0 0.377238,-0.05857 0.179145,-0.05857 0.363457,-0.184313 z"
         style=""
         id="path40" />
      <path
         d="m 13.021765,89.757613 q -0.303168,0 -0.470255,0.223931 -0.167087,0.223931 -0.167087,0.630452 0,0.404799 0.167087,0.62873 0.167087,0.223931 0.470255,0.223931 0.304891,0 0.471978,-0.223931 0.167087,-0.223931 0.167087,-0.62873 0,-0.406521 -0.167087,-0.630452 -0.167087,-0.223931 -0.471978,-0.223931 z m 0,-0.480591 q 0.620117,0 0.971517,0.354845 0.3514,0.354844 0.3514,0.980129 0,0.623562 -0.3514,0.978407 -0.3514,0.354845 -0.971517,0.354845 -0.618394,0 -0.971517,-0.354845 -0.351399,-0.354845 -0.351399,-0.978407 0,-0.625285 0.351399,-0.980129 0.353123,-0.354845 0.971517,-0.354845 z"
         style=""
         id="path42" />
      <path
         d="m 14.844221,89.32353 h 0.663181 v 1.541681 q 0,0.318671 0.103353,0.456475 0.105075,0.136081 0.341064,0.136081 0.237712,0 0.341065,-0.136081 0.105075,-0.137804 0.105075,-0.456475 V 89.32353 h 0.663181 v 1.541681 q 0,0.546047 -0.273885,0.813042 -0.273885,0.266995 -0.835436,0.266995 -0.559828,0 -0.833713,-0.266995 -0.273885,-0.266995 -0.273885,-0.813042 z"
         style=""
         id="path44" />
      <path
         d="m 17.71054,89.32353 h 0.740695 l 0.935343,1.763889 V 89.32353 h 0.62873 v 2.571764 H 19.274613 L 18.33927,90.131405 v 1.763889 h -0.62873 z"
         style=""
         id="path46" />
      <path
         d="m 20.359819,89.32353 h 2.370225 v 0.501262 h -0.852661 v 2.070502 h -0.663181 v -2.070502 h -0.854383 z"
         style=""
         id="path48" />
    </g>
    <g
       aria-label="automaton"
       style="font-style:normal;font-variant:normal;font-weight:bold;font-stretch:normal;font-size:2.82222223px;line-height:1.25;font-family:'DejaVu Sans';-inkscape-font-specification:'DejaVu Sans, Bold';font-variant-ligatures:normal;font-variant-caps:normal;font-variant-numeric:normal;font-feature-settings:normal;text-align:start;letter-spacing:0px;word-spacing:0px;writing-mode:lr-tb;text-anchor:start;fill:#f2f2f2;fill-opacity:1;stroke:none;stroke-width:0.26458332"
       id="text4051">
      <path
         d="m 8.3881645,5.4986884 q -0.1543402,0 -0.2328884,0.052366 -0.07717,0.052365 -0.07717,0.1543402 0,0.093707 0.062012,0.1474501 0.06339,0.052366 0.1750108,0.052366 0.1391819,0 0.2342665,-0.099219 0.095085,-0.1005968 0.095085,-0.2508029 v -0.0565 z M 9.1419514,5.3126533 V 6.1932197 H 8.6444797 V 5.9644653 q -0.099219,0.1405599 -0.2232422,0.2053277 -0.1240235,0.06339 -0.3017904,0.06339 -0.2397787,0 -0.3899848,-0.1391819 Q 7.5806342,5.953441 7.5806342,5.7301988 q 0,-0.2714735 0.1860351,-0.398253 0.1874132,-0.1267795 0.5870443,-0.1267795 h 0.2907661 v -0.038585 q 0,-0.1171332 -0.092329,-0.1708767 -0.092329,-0.055122 -0.28801,-0.055122 -0.1584744,0 -0.2949002,0.031695 -0.1364257,0.031695 -0.253559,0.095085 V 4.691158 q 0.1584744,-0.038585 0.3183268,-0.057878 0.1598525,-0.020671 0.3197049,-0.020671 0.4175456,0 0.6022027,0.1653646 0.1860351,0.1639866 0.1860351,0.5346789 z"
         style=""
         id="path80" />
      <path
         d="M 9.5870578,5.592395 V 4.6498169 h 0.4960942 v 0.1543403 q 0,0.1254014 -0.0014,0.3155707 -0.0014,0.1887912 -0.0014,0.252181 0,0.1860352 0.0096,0.2687174 0.0096,0.081304 0.03307,0.1185113 0.03032,0.048231 0.07855,0.074414 0.04961,0.026183 0.112999,0.026183 0.15434,0 0.242535,-0.1185113 0.08819,-0.1185113 0.08819,-0.3293511 V 4.6498169 h 0.493338 V 6.1932197 H 10.645391 V 5.9699775 q -0.111621,0.1350477 -0.237022,0.1998155 -0.124024,0.06339 -0.27423,0.06339 -0.2673395,0 -0.4078994,-0.1639866 Q 9.5870578,5.9052097 9.5870578,5.592395 Z"
         style=""
         id="path82" />
      <path
         d="m 12.154343,4.2116007 v 0.4382162 h 0.508496 v 0.3527778 h -0.508496 v 0.6545681 q 0,0.107487 0.04272,0.1460721 0.04272,0.037207 0.169499,0.037207 h 0.253559 v 0.3527778 h -0.423058 q -0.292144,0 -0.414789,-0.1212674 Q 11.661005,5.9493069 11.661005,5.6571628 V 5.0025947 H 11.415714 V 4.6498169 h 0.245291 V 4.2116007 Z"
         style=""
         id="path84" />
      <path
         d="m 13.700502,4.9653876 q -0.163987,0 -0.250803,0.1185113 -0.08544,0.1171333 -0.08544,0.3389974 0,0.2218642 0.08544,0.3403754 0.08682,0.1171333 0.250803,0.1171333 0.16123,0 0.246669,-0.1171333 0.08544,-0.1185112 0.08544,-0.3403754 0,-0.2218641 -0.08544,-0.3389974 -0.08544,-0.1185113 -0.246669,-0.1185113 z m 0,-0.3527778 q 0.398253,0 0.621495,0.214974 0.22462,0.214974 0.22462,0.5953125 0,0.3803386 -0.22462,0.5953125 -0.223242,0.214974 -0.621495,0.214974 -0.399631,0 -0.62563,-0.214974 -0.22462,-0.2149739 -0.22462,-0.5953125 0,-0.3803385 0.22462,-0.5953125 0.225999,-0.214974 0.62563,-0.214974 z"
         style=""
         id="path86" />
      <path
         d="m 16.336689,4.906132 q 0.09371,-0.143316 0.221864,-0.2177301 0.129536,-0.075792 0.283876,-0.075792 0.265961,0 0.405143,0.1639866 0.139182,0.1639865 0.139182,0.4768012 V 6.1932197 H 16.89066 V 5.3884454 q 0.0014,-0.017914 0.0014,-0.037207 0.0014,-0.019293 0.0014,-0.055122 0,-0.1639866 -0.04823,-0.2370226 -0.04823,-0.074414 -0.155718,-0.074414 -0.14056,0 -0.21773,0.1157552 -0.07579,0.1157552 -0.07855,0.3348633 v 0.757921 H 15.897095 V 5.3884454 q 0,-0.2563152 -0.0441,-0.3293512 -0.0441,-0.074414 -0.157097,-0.074414 -0.141938,0 -0.219108,0.1171332 -0.07717,0.1157552 -0.07717,0.3321072 V 6.1932197 H 14.903529 V 4.6498169 h 0.496094 v 0.2259982 q 0.09095,-0.1309136 0.208084,-0.1970594 0.118511,-0.066146 0.260449,-0.066146 0.159853,0 0.282498,0.07717 0.122645,0.07717 0.186035,0.216352 z"
         style=""
         id="path88" />
      <path
         d="m 18.54155,5.4986884 q -0.154341,0 -0.232889,0.052366 -0.07717,0.052365 -0.07717,0.1543402 0,0.093707 0.06201,0.1474501 0.06339,0.052366 0.175011,0.052366 0.139182,0 0.234266,-0.099219 0.09509,-0.1005968 0.09509,-0.2508029 v -0.0565 z M 19.295337,5.3126533 V 6.1932197 H 18.797865 V 5.9644653 q -0.09922,0.1405599 -0.223242,0.2053277 -0.124024,0.06339 -0.301791,0.06339 -0.239778,0 -0.389985,-0.1391819 -0.148828,-0.1405599 -0.148828,-0.3638021 0,-0.2714735 0.186035,-0.398253 0.187414,-0.1267795 0.587045,-0.1267795 h 0.290766 v -0.038585 q 0,-0.1171332 -0.09233,-0.1708767 -0.09233,-0.055122 -0.28801,-0.055122 -0.158474,0 -0.2949,0.031695 -0.136426,0.031695 -0.253559,0.095085 V 4.691158 q 0.158474,-0.038585 0.318327,-0.057878 0.159852,-0.020671 0.319705,-0.020671 0.417545,0 0.602202,0.1653646 0.186036,0.1639866 0.186036,0.5346789 z"
         style=""
         id="path90" />
      <path
         d="m 20.295793,4.2116007 v 0.4382162 h 0.508496 v 0.3527778 h -0.508496 v 0.6545681 q 0,0.107487 0.04272,0.1460721 0.04272,0.037207 0.169499,0.037207 h 0.253559 v 0.3527778 h -0.423058 q -0.292144,0 -0.414789,-0.1212674 Q 19.802455,5.9493069 19.802455,5.6571628 V 5.0025947 h -0.24529 V 4.6498169 h 0.24529 V 4.2116007 Z"
         style=""
         id="path92" />
      <path
         d="m 21.841952,4.9653876 q -0.163987,0 -0.250803,0.1185113 -0.08544,0.1171333 -0.08544,0.3389974 0,0.2218642 0.08544,0.3403754 0.08682,0.1171333 0.250803,0.1171333 0.16123,0 0.246669,-0.1171333 0.08544,-0.1185112 0.08544,-0.3403754 0,-0.2218641 -0.08544,-0.3389974 -0.08544,-0.1185113 -0.246669,-0.1185113 z m 0,-0.3527778 q 0.398253,0 0.621495,0.214974 0.22462,0.214974 0.22462,0.5953125 0,0.3803386 -0.22462,0.5953125 -0.223242,0.214974 -0.621495,0.214974 -0.399631,0 -0.62563,-0.214974 -0.22462,-0.2149739 -0.22462,-0.5953125 0,-0.3803385 0.22462,-0.5953125 0.225999,-0.214974 0.62563,-0.214974 z"
         style=""
         id="path94" />
      <path
         d="M 24.599405,5.2533976 V 6.1932197 H 24.103312 V 6.0402574 5.4738837 q 0,-0.1998155 -0.0096,-0.2756076 -0.0083,-0.075792 -0.03032,-0.1116211 -0.02894,-0.048231 -0.07855,-0.074414 -0.04961,-0.027561 -0.112999,-0.027561 -0.15434,0 -0.242534,0.1198893 -0.08819,0.1185113 -0.08819,0.3293511 V 6.1932197 H 23.047734 V 4.6498169 h 0.493338 v 0.2259982 q 0.111621,-0.1350477 0.237023,-0.1984375 0.125401,-0.064768 0.276985,-0.064768 0.26734,0 0.405144,0.1639866 0.139181,0.1639865 0.139181,0.4768012 z"
         style=""
         id="path96" />
    </g>
    <g
       aria-label="qwelk"
       style="font-style:normal;font-variant:normal;font-weight:bold;font-stretch:normal;font-size:2.82222223px;line-height:1.25;font-family:'DejaVu Sans';-inkscape-font-specification:'DejaVu Sans, Bold';font-variant-ligatures:normal;font-variant-caps:normal;font-variant-numeric:normal;font-feature-settings:normal;text-align:start;letter-spacing:0px;word-spacing:0px;writing-mode:lr-tb;text-anchor:start;fill:#f2f2f2;fill-opacity:1;stroke:none;stroke-width:0.26458332"
       id="text4057">
      <path
         d="m 11.498968,95.707734 q -0.157097,0 -0.241157,0.115755 -0.08268,0.115755 -0.08268,0.336241 0,0.220486 0.08268,0.336242 0.08406,0.115755 0.241157,0.115755 0.158474,0 0.241156,-0.115755 0.08406,-0.115756 0.08406,-0.336242 0,-0.220486 -0.08406,-0.336241 -0.08268,-0.115755 -0.241156,-0.115755 z m 0.325217,0.999078 q -0.101975,0.136425 -0.224621,0.199815 -0.122645,0.06339 -0.283875,0.06339 -0.285254,0 -0.468533,-0.225998 -0.18328,-0.227377 -0.18328,-0.584289 0,-0.356912 0.18328,-0.581532 0.183279,-0.225998 0.468533,-0.225998 0.16123,0 0.283875,0.06339 0.122646,0.06339 0.224621,0.199815 v -0.228754 h 0.496093 v 2.130447 h -0.496093 z"
         style=""
         id="path29" />
      <path
         d="m 12.659276,95.386651 h 0.479557 l 0.259071,1.063845 0.26045,-1.063845 h 0.412033 l 0.259071,1.052821 0.260449,-1.052821 h 0.479558 l -0.406522,1.543403 h -0.538812 l -0.26045,-1.06109 -0.259071,1.06109 h -0.538813 z"
         style=""
         id="path31" />
      <path
         d="m 16.944975,96.154218 v 0.14056 h -1.153418 q 0.01791,0.173633 0.125401,0.260449 0.107487,0.08682 0.300413,0.08682 0.155718,0 0.318326,-0.04548 0.163987,-0.04685 0.336242,-0.140559 v 0.380338 q -0.175011,0.06615 -0.350022,0.09922 -0.175011,0.03445 -0.350022,0.03445 -0.418923,0 -0.651812,-0.212218 -0.23151,-0.213596 -0.23151,-0.598069 0,-0.377582 0.227376,-0.593934 0.228754,-0.216352 0.628386,-0.216352 0.363802,0 0.581532,0.219108 0.219108,0.219108 0.219108,0.585666 z m -0.507118,-0.163986 q 0,-0.14056 -0.08268,-0.225999 -0.0813,-0.08682 -0.213596,-0.08682 -0.143315,0 -0.232888,0.0813 -0.08957,0.07993 -0.111621,0.231511 z"
         style=""
         id="path33" />
      <path
         d="m 17.317045,94.785826 h 0.493338 v 2.144228 h -0.493338 z"
         style=""
         id="path35" />
      <path
         d="m 18.287184,94.785826 h 0.493338 v 1.167199 l 0.567751,-0.566374 h 0.573264 l -0.753787,0.708312 0.813043,0.835091 H 19.382724 L 18.780522,96.28651 v 0.643544 h -0.493338 z"
         style=""
         id="path37" />
    </g>
    <rect
       style="fill:#808080;stroke-width:0.25390878"
       id="rect4214"
       width="25.857349"
       height="5.7701693"
       x="2.724261"
       y="14.777831"
       ry="2.7559016" />
    <g
       aria-label="STEP"
       style="font-style:normal;font-variant:normal;font-weight:bold;font-stretch:normal;font-size:3.52777767px;line-height:1.25;font-family:'DejaVu Sans';-inkscape-font-specification:'DejaVu Sans, Bold';font-variant-ligatures:normal;font-variant-caps:normal;font-variant-numeric:normal;font-feature-settings:normal;text-align:start;letter-spacing:0px;word-spacing:0px;writing-mode:lr-tb;text-anchor:start;fill:#f2f2f2;fill-opacity:1;stroke:none;stroke-width:0.26458332"
       id="text4043">
      <path
         d="m 12.473953,16.456269 v 0.544325 q -0.211874,-0.09474 -0.413412,-0.142971 -0.201538,-0.04823 -0.380683,-0.04823 -0.237711,0 -0.351399,0.06546 -0.113688,0.06546 -0.113688,0.203261 0,0.103353 0.07579,0.161919 0.07751,0.05684 0.279052,0.09819 l 0.282498,0.05684 q 0.428915,0.08613 0.609782,0.261827 0.180868,0.1757 0.180868,0.499539 0,0.425469 -0.253215,0.633897 -0.251492,0.206706 -0.769979,0.206706 -0.244602,0 -0.490926,-0.04651 -0.246324,-0.04651 -0.492649,-0.137804 v -0.559828 q 0.246325,0.130914 0.475424,0.198093 0.230821,0.06546 0.444417,0.06546 0.217041,0 0.332452,-0.07235 0.11541,-0.07235 0.11541,-0.206706 0,-0.120578 -0.07924,-0.186035 -0.07751,-0.06546 -0.311781,-0.117133 l -0.25666,-0.05684 q -0.38585,-0.08268 -0.564995,-0.26355 -0.177423,-0.180867 -0.177423,-0.487481 0,-0.384128 0.248047,-0.590834 0.248047,-0.206706 0.713135,-0.206706 0.211873,0 0.435805,0.03273 0.223931,0.03101 0.463365,0.09474 z"
         style=""
         id="path62" />
      <path
         d="m 12.920093,16.375309 h 2.370225 v 0.501262 h -0.852661 v 2.070502 h -0.663181 v -2.070502 h -0.854383 z"
         style=""
         id="path64" />
      <path
         d="m 15.631383,16.375309 h 1.789727 v 0.501262 h -1.126546 v 0.478868 H 17.35393 V 17.8567 h -1.059366 v 0.589112 h 1.164442 v 0.501261 h -1.827623 z"
         style=""
         id="path66" />
      <path
         d="m 18.042949,16.375309 h 1.100708 q 0.490927,0 0.752754,0.218764 0.26355,0.217041 0.26355,0.620117 0,0.404799 -0.26355,0.623562 -0.261827,0.217041 -0.752754,0.217041 H 18.70613 v 0.89228 H 18.042949 Z M 18.70613,16.8559 v 0.718302 h 0.366903 q 0.192925,0 0.298001,-0.09302 0.105075,-0.09474 0.105075,-0.266995 0,-0.172255 -0.105075,-0.265272 -0.105076,-0.09302 -0.298001,-0.09302 z"
         style=""
         id="path68" />
    </g>
    <rect
       ry="2.7559016"
       y="7.6885285"
       x="2.7242613"
       height="5.7701693"
       width="25.857349"
       id="rect4216"
       style="fill:#808080;stroke-width:0.25390878" />
    <g
       aria-label="SCAN"
       style="font-style:normal;font-variant:normal;font-weight:bold;font-stretch:normal;font-size:3.52777767px;line-height:1.25;font-family:'DejaVu Sans';-inkscape-font-specification:'DejaVu Sans, Bold';font-variant-ligatures:normal;font-variant-caps:normal;font-variant-numeric:normal;font-feature-settings:normal;text-align:start;letter-spacing:0px;word-spacing:0px;writing-mode:lr-tb;text-anchor:start;fill:#f2f2f2;fill-opacity:1;stroke:none;stroke-width:0.26458332"
       id="text4039">
      <path
         d="m 12.660892,9.3669689 v 0.544325 q -0.211873,-0.09474 -0.413411,-0.1429714 -0.201538,-0.048231 -0.380683,-0.048231 -0.237712,0 -0.3514,0.065457 -0.113688,0.065457 -0.113688,0.2032606 0,0.1033524 0.07579,0.1619194 0.07751,0.05684 0.279053,0.09818 l 0.282497,0.05684 q 0.428915,0.08613 0.609782,0.261828 0.180868,0.175699 0.180868,0.499538 0,0.42547 -0.253215,0.633898 -0.251492,0.206706 -0.769979,0.206706 -0.244601,0 -0.490926,-0.04651 -0.246324,-0.04651 -0.492648,-0.137804 v -0.559828 q 0.246324,0.130914 0.475423,0.198093 0.230821,0.06546 0.444417,0.06546 0.217041,0 0.332452,-0.07235 0.115411,-0.07235 0.115411,-0.206706 0,-0.120578 -0.07924,-0.186035 -0.07751,-0.06546 -0.311781,-0.117133 l -0.256659,-0.05684 q -0.385851,-0.08268 -0.564996,-0.26355 -0.177422,-0.180868 -0.177422,-0.487481 0,-0.3841282 0.248046,-0.5908339 0.248047,-0.2067058 0.713135,-0.2067058 0.211874,0 0.435805,0.032728 0.223931,0.031006 0.463365,0.09474 z"
         style=""
         id="path71" />
      <path
         d="m 15.453142,11.716524 q -0.18259,0.09474 -0.380683,0.142971 -0.198093,0.04823 -0.413411,0.04823 -0.642511,0 -1.018026,-0.35829 -0.375516,-0.360013 -0.375516,-0.974962 0,-0.6166723 0.375516,-0.9749622 0.375515,-0.3600125 1.018026,-0.3600125 0.215318,0 0.413411,0.048231 0.198093,0.048231 0.380683,0.1429714 v 0.5322673 q -0.184313,-0.125746 -0.363458,-0.1843126 -0.179145,-0.058567 -0.377238,-0.058567 -0.354844,0 -0.558105,0.2273763 -0.203261,0.2273766 -0.203261,0.6270076 0,0.397908 0.203261,0.625285 0.203261,0.227376 0.558105,0.227376 0.198093,0 0.377238,-0.05857 0.179145,-0.05857 0.363458,-0.184312 z"
         style=""
         id="path73" />
      <path
         d="m 17.564985,11.38924 h -1.036973 l -0.163642,0.468533 h -0.666626 l 0.952569,-2.5717639 h 0.790649 l 0.952569,2.5717639 h -0.666626 z m -0.871609,-0.477146 h 0.704522 l -0.3514,-1.0231932 z"
         style=""
         id="path75" />
      <path
         d="m 18.732873,9.2860091 h 0.740695 l 0.935344,1.7638889 V 9.2860091 h 0.62873 v 2.5717639 h -0.740696 l -0.935343,-1.763889 v 1.763889 h -0.62873 z"
         style=""
         id="path77" />
    </g>
  </g>
</svg>
