<?xml version="1.0" encoding="UTF-8" standalone="no"?>
<!-- Created with Inkscape (http://www.inkscape.org/) -->

<svg
   xmlns:dc="http://purl.org/dc/elements/1.1/"
   xmlns:cc="http://creativecommons.org/ns#"
   xmlns:rdf="http://www.w3.org/1999/02/22-rdf-syntax-ns#"
   xmlns:svg="http://www.w3.org/2000/svg"
   xmlns="http://www.w3.org/2000/svg"
   xmlns:sodipodi="http://sodipodi.sourceforge.net/DTD/sodipodi-0.dtd"
   xmlns:inkscape="http://www.inkscape.org/namespaces/inkscape"
   width="240"
   height="380"
   viewBox="0 0 63.5 100.54167"
   version="1.1"
   id="svg85367"
   inkscape:version="0.92.2 (5c3e80d, 2017-08-06)"
   sodipodi:docname="Chaos.svg">
  <defs
     id="defs85361" />
  <sodipodi:namedview
     id="base"
     pagecolor="#ffffff"
     bordercolor="#666666"
     borderopacity="1.0"
     inkscape:pageopacity="0.0"
     inkscape:pageshadow="2"
     inkscape:zoom="1"
     inkscape:cx="-66.518742"
     inkscape:cy="140.76061"
     inkscape:document-units="mm"
     inkscape:current-layer="layer4"
     showgrid="false"
     fit-margin-top="0"
     fit-margin-left="0"
     fit-margin-right="0"
     fit-margin-bottom="0"
     units="px"
     inkscape:window-width="1366"
     inkscape:window-height="749"
     inkscape:window-x="-4"
     inkscape:window-y="-4"
     inkscape:window-maximized="1"
     inkscape:snap-bbox="true"
     inkscape:bbox-nodes="true"
     inkscape:object-nodes="true"
     inkscape:snap-page="false"
     inkscape:object-paths="false"
     inkscape:snap-bbox-edge-midpoints="false"
     inkscape:bbox-paths="true"
     inkscape:snap-bbox-midpoints="false"
     inkscape:snap-intersection-paths="false"
     inkscape:snap-smooth-nodes="false"
     inkscape:snap-midpoints="false"
     inkscape:snap-object-midpoints="true"
     inkscape:snap-center="false"
     inkscape:snap-others="true"
     inkscape:snap-global="true"
     inkscape:snap-to-guides="true" />
  <metadata
     id="metadata85364">
    <rdf:RDF>
      <cc:Work
         rdf:about="">
        <dc:format>image/svg+xml</dc:format>
        <dc:type
           rdf:resource="http://purl.org/dc/dcmitype/StillImage" />
        <dc:title></dc:title>
      </cc:Work>
    </rdf:RDF>
  </metadata>
  <g
     inkscape:groupmode="layer"
     id="layer4"
     inkscape:label="plate"
     style="display:inline"
     transform="translate(0,8.0744425e-6)">
    <path
       inkscape:connector-curvature="0"
       id="path65292-2"
       d="M 0.05024939,0.11721047 H 63.832633 V 100.51333 H 0.05024939 Z m 0,0"
       style="fill:#4d4d4d;fill-opacity:1;fill-rule:nonzero;stroke:none;stroke-width:0.39182761" />
  </g>
  <g
     inkscape:groupmode="layer"
     id="layer3"
     inkscape:label="decs"
     style="display:inline"
     transform="translate(0,8.0744425e-6)">
    <rect
       style="fill:#808080;stroke-width:0.25390878"
       id="rect3911"
       width="25.857349"
       height="5.7701693"
       x="2.724261"
       y="80.391747"
       ry="2.7559016" />
    <rect
       ry="2.7559016"
       y="87.726051"
       x="2.724261"
       height="5.7701693"
       width="25.857349"
       id="rect4212"
       style="fill:#808080;stroke-width:0.25390878" />
    <rect
       transform="rotate(90)"
       ry="2.7813048"
       y="-21.673357"
       x="8.6306572"
       height="5.8233562"
       width="84.900002"
       id="rect3923"
       style="fill:#c83737;stroke-width:0.46220216" />
    <rect
       style="fill:#808080;stroke-width:0.25390878"
       id="rect4214"
       width="25.857349"
       height="5.7701693"
       x="2.724261"
       y="14.777831"
       ry="2.7559016" />
    <rect
       ry="2.7559016"
       y="7.6885285"
       x="2.7242613"
       height="5.7701693"
       width="25.857349"
       id="rect4216"
       style="fill:#808080;stroke-width:0.25390878" />
    <rect
       style="fill:#0088aa;stroke-width:0.46220213"
       id="rect3921"
       width="84.900002"
       height="5.8233562"
       x="7.6726584"
       y="-15.123356"
       ry="2.7813048"
       transform="rotate(90)" />
    <path
       sodipodi:nodetypes="cssssssssc"
       inkscape:connector-curvature="0"
       id="path65"
       d="m 25.795184,20.545131 -10.787761,0.01653 c -0.421076,6.46e-4 -0.08769,-0.663435 -0.06832,-2.044833 l 0.03376,-2.408105 c 0.0214,-1.526628 0.175156,-1.299483 0.551345,-1.300694 l 10.270973,-0.03307 c 1.5588,-0.005 2.813732,1.229132 2.813732,2.755902 v 0.258366 c 0,1.526769 -1.254998,2.770667 -2.813732,2.755901 z"
       style="fill:#0088aa;fill-opacity:1;stroke-width:0.25655898" />
    <g
       aria-label="STEP"
       style="font-style:normal;font-variant:normal;font-weight:bold;font-stretch:normal;font-size:3.52777767px;line-height:1.25;font-family:'DejaVu Sans';-inkscape-font-specification:'DejaVu Sans, Bold';font-variant-ligatures:normal;font-variant-caps:normal;font-variant-numeric:normal;font-feature-settings:normal;text-align:start;letter-spacing:0px;word-spacing:0px;writing-mode:lr-tb;text-anchor:start;fill:#f2f2f2;fill-opacity:1;stroke:none;stroke-width:0.26458332"
       id="text4043"
       transform="translate(-0.53645555,0.00172471)">
      <path
         d="m 12.473953,16.456269 v 0.544325 q -0.211874,-0.09474 -0.413412,-0.142971 -0.201538,-0.04823 -0.380683,-0.04823 -0.237711,0 -0.351399,0.06546 -0.113688,0.06546 -0.113688,0.203261 0,0.103353 0.07579,0.161919 0.07751,0.05684 0.279052,0.09819 l 0.282498,0.05684 q 0.428915,0.08613 0.609782,0.261827 0.180868,0.1757 0.180868,0.499539 0,0.425469 -0.253215,0.633897 -0.251492,0.206706 -0.769979,0.206706 -0.244602,0 -0.490926,-0.04651 -0.246324,-0.04651 -0.492649,-0.137804 V 18.25289 q 0.246325,0.130914 0.475424,0.198093 0.230821,0.06546 0.444417,0.06546 0.217041,0 0.332452,-0.07235 0.11541,-0.07235 0.11541,-0.206706 0,-0.120578 -0.07924,-0.186035 -0.07751,-0.06546 -0.311781,-0.117133 l -0.25666,-0.05684 q -0.38585,-0.08268 -0.564995,-0.26355 -0.177423,-0.180867 -0.177423,-0.487481 0,-0.384128 0.248047,-0.590834 0.248047,-0.206706 0.713135,-0.206706 0.211873,0 0.435805,0.03273 0.223931,0.03101 0.463365,0.09474 z"
         id="path62"
         inkscape:connector-curvature="0" />
      <path
         d="m 12.920093,16.375309 h 2.370225 v 0.501262 h -0.852661 v 2.070502 h -0.663181 v -2.070502 h -0.854383 z"
         id="path64"
         inkscape:connector-curvature="0" />
      <path
         d="m 15.631383,16.375309 h 1.789727 v 0.501262 h -1.126546 v 0.478868 H 17.35393 V 17.8567 h -1.059366 v 0.589112 h 1.164442 v 0.501261 h -1.827623 z"
         id="path66"
         inkscape:connector-curvature="0" />
      <path
         d="m 18.042949,16.375309 h 1.100708 q 0.490927,0 0.752754,0.218764 0.26355,0.217041 0.26355,0.620117 0,0.404799 -0.26355,0.623562 -0.261827,0.217041 -0.752754,0.217041 H 18.70613 v 0.89228 H 18.042949 Z M 18.70613,16.8559 v 0.718302 h 0.366903 q 0.192925,0 0.298001,-0.09302 0.105075,-0.09474 0.105075,-0.266995 0,-0.172255 -0.105075,-0.265272 -0.105076,-0.09302 -0.298001,-0.09302 z"
         id="path68"
         inkscape:connector-curvature="0" />
    </g>
    <path
       sodipodi:nodetypes="cssssssssc"
       inkscape:connector-curvature="0"
       id="path60"
       d="m 5.4430771,87.727712 10.7709369,0.01654 c 0.412423,6.33e-4 3.335597,-0.0456 3.764625,1.267619 l 0.921921,2.821932 c 0.474133,1.451285 -2.461853,1.66451 -2.830314,1.664496 L 5.4430771,93.497828 C 3.9163075,93.497771 2.6871755,92.268744 2.6871755,90.741974 v -0.258366 c 0,-1.526769 1.2292035,-2.770667 2.7559016,-2.755901 z"
       style="fill:#c83737;fill-opacity:1;stroke-width:0.25390878" />
    <g
       aria-label="COUNT"
       style="font-style:normal;font-variant:normal;font-weight:bold;font-stretch:normal;font-size:3.52777767px;line-height:1.25;font-family:'DejaVu Sans';-inkscape-font-specification:'DejaVu Sans, Bold';font-variant-ligatures:normal;font-variant-caps:normal;font-variant-numeric:normal;font-feature-settings:normal;text-align:start;letter-spacing:0px;word-spacing:0px;writing-mode:lr-tb;text-anchor:start;fill:#f2f2f2;fill-opacity:1;stroke:none;stroke-width:0.26458332"
       id="text4033"
       transform="translate(-3.2666607)">
      <path
         d="m 11.295772,91.754045 q -0.18259,0.09474 -0.380683,0.142972 -0.198093,0.04823 -0.413411,0.04823 -0.6425104,0 -1.0180258,-0.35829 -0.3755154,-0.360012 -0.3755154,-0.974962 0,-0.616672 0.3755154,-0.974962 0.3755154,-0.360012 1.0180258,-0.360012 0.215318,0 0.413411,0.04823 0.198093,0.04823 0.380683,0.142971 v 0.532268 q -0.184312,-0.125746 -0.363457,-0.184313 -0.179145,-0.05857 -0.377238,-0.05857 -0.354845,0 -0.5581056,0.227376 -0.2032606,0.227376 -0.2032606,0.627007 0,0.397909 0.2032606,0.625285 0.2032606,0.227376 0.5581056,0.227376 0.198093,0 0.377238,-0.05857 0.179145,-0.05857 0.363457,-0.184313 z"
         id="path40"
         inkscape:connector-curvature="0" />
      <path
         d="m 13.021765,89.757613 q -0.303168,0 -0.470255,0.223931 -0.167087,0.223931 -0.167087,0.630452 0,0.404799 0.167087,0.62873 0.167087,0.223931 0.470255,0.223931 0.304891,0 0.471978,-0.223931 0.167087,-0.223931 0.167087,-0.62873 0,-0.406521 -0.167087,-0.630452 -0.167087,-0.223931 -0.471978,-0.223931 z m 0,-0.480591 q 0.620117,0 0.971517,0.354845 0.3514,0.354844 0.3514,0.980129 0,0.623562 -0.3514,0.978407 -0.3514,0.354845 -0.971517,0.354845 -0.618394,0 -0.971517,-0.354845 -0.351399,-0.354845 -0.351399,-0.978407 0,-0.625285 0.351399,-0.980129 0.353123,-0.354845 0.971517,-0.354845 z"
         id="path42"
         inkscape:connector-curvature="0" />
      <path
         d="m 14.844221,89.32353 h 0.663181 v 1.541681 q 0,0.318671 0.103353,0.456475 0.105075,0.136081 0.341064,0.136081 0.237712,0 0.341065,-0.136081 0.105075,-0.137804 0.105075,-0.456475 V 89.32353 h 0.663181 v 1.541681 q 0,0.546047 -0.273885,0.813042 -0.273885,0.266995 -0.835436,0.266995 -0.559828,0 -0.833713,-0.266995 -0.273885,-0.266995 -0.273885,-0.813042 z"
         id="path44"
         inkscape:connector-curvature="0" />
      <path
         d="m 17.71054,89.32353 h 0.740695 l 0.935343,1.763889 V 89.32353 h 0.62873 v 2.571764 H 19.274613 L 18.33927,90.131405 v 1.763889 h -0.62873 z"
         id="path46"
         inkscape:connector-curvature="0" />
      <path
         d="m 20.359819,89.32353 h 2.370225 v 0.501262 h -0.852661 v 2.070502 h -0.663181 v -2.070502 h -0.854383 z"
         id="path48"
         inkscape:connector-curvature="0" />
    </g>
    <g
       aria-label="qwelk"
       style="font-style:normal;font-variant:normal;font-weight:bold;font-stretch:normal;font-size:2.82222223px;line-height:1.25;font-family:'DejaVu Sans';-inkscape-font-specification:'DejaVu Sans, Bold';font-variant-ligatures:normal;font-variant-caps:normal;font-variant-numeric:normal;font-feature-settings:normal;text-align:start;letter-spacing:0px;word-spacing:0px;writing-mode:lr-tb;text-anchor:start;fill:#f2f2f2;fill-opacity:1;stroke:none;stroke-width:0.26458332"
       id="text4057"
       transform="translate(0,2.1166667)">
      <path
         d="m 11.498968,95.707734 q -0.157097,0 -0.241157,0.115755 -0.08268,0.115755 -0.08268,0.336241 0,0.220486 0.08268,0.336242 0.08406,0.115755 0.241157,0.115755 0.158474,0 0.241156,-0.115755 0.08406,-0.115756 0.08406,-0.336242 0,-0.220486 -0.08406,-0.336241 -0.08268,-0.115755 -0.241156,-0.115755 z m 0.325217,0.999078 q -0.101975,0.136425 -0.224621,0.199815 -0.122645,0.06339 -0.283875,0.06339 -0.285254,0 -0.468533,-0.225998 -0.18328,-0.227377 -0.18328,-0.584289 0,-0.356912 0.18328,-0.581532 0.183279,-0.225998 0.468533,-0.225998 0.16123,0 0.283875,0.06339 0.122646,0.06339 0.224621,0.199815 v -0.228754 h 0.496093 v 2.130447 h -0.496093 z"
         id="path29"
         inkscape:connector-curvature="0" />
      <path
         d="m 12.659276,95.386651 h 0.479557 l 0.259071,1.063845 0.26045,-1.063845 h 0.412033 l 0.259071,1.052821 0.260449,-1.052821 h 0.479558 l -0.406522,1.543403 h -0.538812 l -0.26045,-1.06109 -0.259071,1.06109 h -0.538813 z"
         id="path31"
         inkscape:connector-curvature="0" />
      <path
         d="m 16.944975,96.154218 v 0.14056 h -1.153418 q 0.01791,0.173633 0.125401,0.260449 0.107487,0.08682 0.300413,0.08682 0.155718,0 0.318326,-0.04548 0.163987,-0.04685 0.336242,-0.140559 v 0.380338 q -0.175011,0.06615 -0.350022,0.09922 -0.175011,0.03445 -0.350022,0.03445 -0.418923,0 -0.651812,-0.212218 -0.23151,-0.213596 -0.23151,-0.598069 0,-0.377582 0.227376,-0.593934 0.228754,-0.216352 0.628386,-0.216352 0.363802,0 0.581532,0.219108 0.219108,0.219108 0.219108,0.585667 z m -0.507118,-0.163986 q 0,-0.14056 -0.08268,-0.225999 -0.0813,-0.08682 -0.213596,-0.08682 -0.143315,0 -0.232888,0.0813 -0.08957,0.07993 -0.111621,0.231511 z"
         id="path33"
         inkscape:connector-curvature="0" />
      <path
         d="m 17.317045,94.785826 h 0.493338 v 2.144228 h -0.493338 z"
         id="path35"
         inkscape:connector-curvature="0" />
      <path
         d="m 18.287184,94.785826 h 0.493338 v 1.167199 l 0.567751,-0.566374 h 0.573264 l -0.753787,0.708312 0.813043,0.835091 H 19.382724 L 18.780522,96.28651 v 0.643544 h -0.493338 z"
         id="path37"
         inkscape:connector-curvature="0" />
    </g>
    <path
       style="fill:#0088aa;fill-opacity:1;stroke-width:0.25390878"
       d="m 25.827409,13.452942 -10.903229,-1e-6 c -0.412424,0 0.179933,-0.498544 -0.75499,-1.515666 L 11.158232,8.6615917 C 10.125019,7.5375371 11.496271,7.6799471 15.643008,7.6807652 l 10.184401,0.00201 c 1.52677,3.012e-4 2.755902,1.229132 2.755902,2.7559028 v 0.258366 c 0,1.526769 -1.229204,2.770667 -2.755902,2.755901 z"
       id="path81"
       inkscape:connector-curvature="0"
       sodipodi:nodetypes="cssssssssc" />
    <g
       aria-label="SCAN"
       style="font-style:normal;font-variant:normal;font-weight:bold;font-stretch:normal;font-size:3.52777767px;line-height:1.25;font-family:'DejaVu Sans';-inkscape-font-specification:'DejaVu Sans, Bold';font-variant-ligatures:normal;font-variant-caps:normal;font-variant-numeric:normal;font-feature-settings:normal;text-align:start;letter-spacing:0px;word-spacing:0px;writing-mode:lr-tb;text-anchor:start;fill:#f2f2f2;fill-opacity:1;stroke:none;stroke-width:0.26458332"
       id="text4039"
       transform="translate(-0.53959988)">
      <path
         d="m 12.660892,9.3669689 v 0.544325 q -0.211873,-0.09474 -0.413411,-0.1429714 -0.201538,-0.048231 -0.380683,-0.048231 -0.237712,0 -0.3514,0.065457 -0.113688,0.065457 -0.113688,0.2032606 0,0.1033529 0.07579,0.1619199 0.07751,0.05684 0.279053,0.09818 l 0.282497,0.05684 q 0.428915,0.08613 0.609782,0.261827 0.180868,0.175699 0.180868,0.499538 0,0.425471 -0.253215,0.633898 -0.251492,0.206707 -0.769979,0.206707 -0.244601,0 -0.490926,-0.04651 -0.246324,-0.04651 -0.492648,-0.137804 v -0.559828 q 0.246324,0.130914 0.475423,0.198093 0.230821,0.06546 0.444417,0.06546 0.217041,0 0.332452,-0.07235 0.115411,-0.07235 0.115411,-0.206706 0,-0.120578 -0.07924,-0.186035 -0.07751,-0.06546 -0.311781,-0.117134 l -0.256659,-0.05684 q -0.385851,-0.08268 -0.564996,-0.26355 -0.177422,-0.180869 -0.177422,-0.487482 0,-0.3841277 0.248046,-0.5908334 0.248047,-0.2067058 0.713135,-0.2067058 0.211874,0 0.435805,0.032728 0.223931,0.031006 0.463365,0.09474 z"
         id="path71"
         inkscape:connector-curvature="0" />
      <path
         d="m 15.453142,11.716524 q -0.18259,0.09474 -0.380683,0.142971 -0.198093,0.04823 -0.413411,0.04823 -0.642511,0 -1.018026,-0.35829 -0.375516,-0.360013 -0.375516,-0.974962 0,-0.6166723 0.375516,-0.9749622 0.375515,-0.3600125 1.018026,-0.3600125 0.215318,0 0.413411,0.048231 0.198093,0.048231 0.380683,0.1429714 V 9.962968 q -0.184313,-0.125746 -0.363458,-0.1843126 -0.179145,-0.058567 -0.377238,-0.058567 -0.354844,0 -0.558105,0.2273763 -0.203261,0.2273763 -0.203261,0.6270073 0,0.397908 0.203261,0.625285 0.203261,0.227376 0.558105,0.227376 0.198093,0 0.377238,-0.05857 0.179145,-0.05857 0.363458,-0.184312 z"
         id="path73"
         inkscape:connector-curvature="0" />
      <path
         d="m 17.564985,11.38924 h -1.036973 l -0.163642,0.468533 h -0.666626 l 0.952569,-2.5717639 h 0.790649 l 0.952569,2.5717639 h -0.666626 z m -0.871609,-0.477146 h 0.704522 l -0.3514,-1.0231932 z"
         id="path75"
         inkscape:connector-curvature="0" />
      <path
         d="m 18.732873,9.2860091 h 0.740695 l 0.935344,1.7638889 V 9.2860091 h 0.62873 v 2.5717639 h -0.740696 l -0.935343,-1.763889 v 1.763889 h -0.62873 z"
         id="path77"
         inkscape:connector-curvature="0" />
    </g>
    <path
       style="fill:#c83737;fill-opacity:1;stroke-width:0.25390878"
       d="m 5.4333904,80.391747 10.5311586,0.0083 c 0.412423,3.24e-4 0.120768,0.638631 0.101799,2.020029 l -0.03307,2.408105 c -0.02096,1.526628 -0.171556,1.299483 -0.540014,1.300694 l -10.0598756,0.03307 c -1.5267613,0.005 -2.7559016,-1.229132 -2.7559016,-2.755902 v -0.258366 c 0,-1.526769 1.2292035,-2.770667 2.7559016,-2.755901 z"
       id="rect57"
       inkscape:connector-curvature="0"
       sodipodi:nodetypes="cssssssssc" />
    <g
       aria-label="VALUE"
       style="font-style:normal;font-variant:normal;font-weight:bold;font-stretch:normal;font-size:3.52777767px;line-height:1.25;font-family:'DejaVu Sans';-inkscape-font-specification:'DejaVu Sans, Bold';font-variant-ligatures:normal;font-variant-caps:normal;font-variant-numeric:normal;font-feature-settings:normal;text-align:start;letter-spacing:0px;word-spacing:0px;writing-mode:lr-tb;text-anchor:start;fill:#f2f2f2;fill-opacity:1;stroke:none;stroke-width:0.26458332"
       id="text4029"
       transform="translate(-3.9083095,2.5805664e-6)">
      <path
         d="m 9.7497856,81.965971 h 0.6666264 l 0.682128,1.898248 0.680407,-1.898248 h 0.666626 l -0.952569,2.571764 h -0.790649 z"
         style="font-style:normal;font-variant:normal;font-weight:bold;font-stretch:normal;font-size:3.52777767px;font-family:'DejaVu Sans';-inkscape-font-specification:'DejaVu Sans, Bold';font-variant-ligatures:normal;font-variant-caps:normal;font-variant-numeric:normal;font-feature-settings:normal;text-align:start;writing-mode:lr-tb;text-anchor:start;fill:#f2f2f2;stroke-width:0.26458332"
         id="path51"
         inkscape:connector-curvature="0" />
      <path
         d="m 14.104386,84.069202 h -1.036974 l -0.163642,0.468533 h -0.666626 l 0.952569,-2.571764 h 0.79065 l 0.952569,2.571764 h -0.666626 z m -0.871609,-0.477146 h 0.704522 l -0.3514,-1.023193 z"
         style="font-style:normal;font-variant:normal;font-weight:bold;font-stretch:normal;font-size:3.52777767px;font-family:'DejaVu Sans';-inkscape-font-specification:'DejaVu Sans, Bold';font-variant-ligatures:normal;font-variant-caps:normal;font-variant-numeric:normal;font-feature-settings:normal;text-align:start;writing-mode:lr-tb;text-anchor:start;fill:#f2f2f2;stroke-width:0.26458332"
         id="path53"
         inkscape:connector-curvature="0" />
      <path
         d="m 15.272274,81.965971 h 0.663181 v 2.070503 h 1.164442 v 0.501261 h -1.827623 z"
         style="font-style:normal;font-variant:normal;font-weight:bold;font-stretch:normal;font-size:3.52777767px;font-family:'DejaVu Sans';-inkscape-font-specification:'DejaVu Sans, Bold';font-variant-ligatures:normal;font-variant-caps:normal;font-variant-numeric:normal;font-feature-settings:normal;text-align:start;writing-mode:lr-tb;text-anchor:start;fill:#f2f2f2;stroke-width:0.26458332"
         id="path55"
         inkscape:connector-curvature="0" />
      <path
         d="m 17.394452,81.965971 h 0.663181 v 1.54168 q 0,0.318672 0.103353,0.456476 0.105075,0.136081 0.341065,0.136081 0.237711,0 0.341064,-0.136081 0.105075,-0.137804 0.105075,-0.456476 v -1.54168 h 0.663181 v 1.54168 q 0,0.546048 -0.273885,0.813043 -0.273885,0.266995 -0.835435,0.266995 -0.559828,0 -0.833714,-0.266995 -0.273885,-0.266995 -0.273885,-0.813043 z"
         style="font-style:normal;font-variant:normal;font-weight:bold;font-stretch:normal;font-size:3.52777767px;font-family:'DejaVu Sans';-inkscape-font-specification:'DejaVu Sans, Bold';font-variant-ligatures:normal;font-variant-caps:normal;font-variant-numeric:normal;font-feature-settings:normal;text-align:start;writing-mode:lr-tb;text-anchor:start;fill:#f2f2f2;stroke-width:0.26458332"
         id="path57"
         inkscape:connector-curvature="0" />
      <path
         d="m 20.260772,81.965971 h 1.789727 v 0.501262 h -1.126547 v 0.478868 h 1.059367 v 0.501261 h -1.059367 v 0.589112 h 1.164443 v 0.501261 h -1.827623 z"
         style="font-style:normal;font-variant:normal;font-weight:bold;font-stretch:normal;font-size:3.52777767px;font-family:'DejaVu Sans';-inkscape-font-specification:'DejaVu Sans, Bold';font-variant-ligatures:normal;font-variant-caps:normal;font-variant-numeric:normal;font-feature-settings:normal;text-align:start;writing-mode:lr-tb;text-anchor:start;fill:#f2f2f2;stroke-width:0.26458332"
         id="path59"
         inkscape:connector-curvature="0" />
    </g>
  </g>
</svg>
