<?xml version="1.0" encoding="UTF-8" standalone="no"?>
<!-- Created with Inkscape (http://www.inkscape.org/) -->

<svg
   xmlns:dc="http://purl.org/dc/elements/1.1/"
   xmlns:cc="http://creativecommons.org/ns#"
   xmlns:rdf="http://www.w3.org/1999/02/22-rdf-syntax-ns#"
   xmlns:svg="http://www.w3.org/2000/svg"
   xmlns="http://www.w3.org/2000/svg"
   xmlns:sodipodi="http://sodipodi.sourceforge.net/DTD/sodipodi-0.dtd"
   xmlns:inkscape="http://www.inkscape.org/namespaces/inkscape"
   width="240"
   height="380"
   viewBox="0 0 63.5 100.54167"
   version="1.1"
   id="svg85367"
   inkscape:version="0.92.2 (5c3e80d, 2017-08-06)"
   sodipodi:docname="wip_Chaos.svg">
  <defs
     id="defs85361">
    <marker
       inkscape:stockid="Arrow1Lstart"
       orient="auto"
       refY="0.0"
       refX="0.0"
       id="marker4937"
       style="overflow:visible"
       inkscape:isstock="true">
      <path
         id="path4935"
         d="M 0.0,0.0 L 5.0,-5.0 L -12.5,0.0 L 5.0,5.0 L 0.0,0.0 z "
         style="fill-rule:evenodd;stroke:#000000;stroke-width:1.0pt"
         transform="scale(0.8) translate(12.5,0)" />
    </marker>
    <marker
       inkscape:stockid="Arrow1Lstart"
       orient="auto"
       refY="0.0"
       refX="0.0"
       id="marker4921"
       style="overflow:visible"
       inkscape:isstock="true">
      <path
         id="path4919"
         d="M 0.0,0.0 L 5.0,-5.0 L -12.5,0.0 L 5.0,5.0 L 0.0,0.0 z "
         style="fill-rule:evenodd;stroke:#000000;stroke-width:1.0pt"
         transform="scale(0.8) translate(12.5,0)" />
    </marker>
    <marker
       inkscape:stockid="Arrow1Lstart"
       orient="auto"
       refY="0.0"
       refX="0.0"
       id="Arrow1Lstart"
       style="overflow:visible"
       inkscape:isstock="true">
      <path
         id="path4649"
         d="M 0.0,0.0 L 5.0,-5.0 L -12.5,0.0 L 5.0,5.0 L 0.0,0.0 z "
         style="fill-rule:evenodd;stroke:#000000;stroke-width:1.0pt"
         transform="scale(0.8) translate(12.5,0)" />
    </marker>
  </defs>
  <sodipodi:namedview
     id="base"
     pagecolor="#ffffff"
     bordercolor="#666666"
     borderopacity="1.0"
     inkscape:pageopacity="0.0"
     inkscape:pageshadow="2"
     inkscape:zoom="2"
     inkscape:cx="70.822658"
     inkscape:cy="307.9546"
     inkscape:document-units="mm"
     inkscape:current-layer="layer3"
     showgrid="false"
     fit-margin-top="0"
     fit-margin-left="0"
     fit-margin-right="0"
     fit-margin-bottom="0"
     units="px"
     inkscape:window-width="1366"
     inkscape:window-height="749"
     inkscape:window-x="-4"
     inkscape:window-y="-4"
     inkscape:window-maximized="1"
     inkscape:snap-bbox="true"
     inkscape:bbox-nodes="true"
     inkscape:object-nodes="true"
     inkscape:snap-page="false"
     inkscape:object-paths="false"
     inkscape:snap-bbox-edge-midpoints="false"
     inkscape:bbox-paths="true"
     inkscape:snap-bbox-midpoints="false"
     inkscape:snap-intersection-paths="false"
     inkscape:snap-smooth-nodes="false"
     inkscape:snap-midpoints="false"
     inkscape:snap-object-midpoints="true"
     inkscape:snap-center="false"
     inkscape:snap-others="false"
     inkscape:snap-global="false"
     inkscape:snap-to-guides="true" />
  <metadata
     id="metadata85364">
    <rdf:RDF>
      <cc:Work
         rdf:about="">
        <dc:format>image/svg+xml</dc:format>
        <dc:type
           rdf:resource="http://purl.org/dc/dcmitype/StillImage" />
        <dc:title></dc:title>
      </cc:Work>
    </rdf:RDF>
  </metadata>
  <g
     inkscape:groupmode="layer"
     id="layer4"
     inkscape:label="plate"
     style="display:inline"
     transform="translate(0,8.0744425e-6)">
    <path
       inkscape:connector-curvature="0"
       id="path65292-2"
       d="M 0.05024939,0.11721047 H 63.832633 V 100.51333 H 0.05024939 Z m 0,0"
       style="fill:#4d4d4d;fill-opacity:1;fill-rule:nonzero;stroke:none;stroke-width:0.39182761" />
  </g>
  <g
     inkscape:groupmode="layer"
     id="layer3"
     inkscape:label="decs"
     style="display:inline"
     transform="translate(0,8.0744425e-6)">
    <rect
       style="fill:#c83737;stroke-width:0.34021771"
       id="rect78"
       width="46"
       height="5.8233562"
       x="8.1026211"
       y="-53.773357"
       ry="2.7813048"
       transform="rotate(90)" />
    <rect
       style="fill:#808080;stroke-width:0.37912488"
       id="rect3911"
       width="57.649208"
       height="5.7701693"
       x="2.724261"
       y="80.391747"
       ry="2.7559016" />
    <rect
       ry="2.7559016"
       y="87.726051"
       x="2.724261"
       height="5.7701693"
       width="57.555664"
       id="rect4212"
       style="fill:#808080;stroke-width:0.37881726" />
    <rect
       ry="2.7559016"
       y="80.381493"
       x="18.624001"
       height="5.7701693"
       width="22.099377"
       id="rect62"
       style="fill:#c83737;fill-opacity:1;stroke-width:0.23473386" />
    <rect
       transform="rotate(90)"
       ry="2.7813048"
       y="-26.965031"
       x="8.6306572"
       height="5.8233562"
       width="84.900002"
       id="rect3923"
       style="fill:#c83737;stroke-width:0.46220216" />
    <rect
       style="fill:#808080;stroke-width:0.27765468"
       id="rect4214"
       width="30.919935"
       height="5.7701693"
       x="2.724261"
       y="14.777831"
       ry="2.7559016" />
    <rect
       ry="2.7559016"
       y="7.6885285"
       x="2.7242615"
       height="5.7701693"
       width="30.919933"
       id="rect4216"
       style="fill:#808080;stroke-width:0.27765471" />
    <rect
       ry="2.7559016"
       y="91.709488"
       x="22.262981"
       height="5.7701693"
       width="18.123318"
       id="rect70"
       style="fill:#c83737;fill-opacity:1;stroke-width:0.21257125" />
    <rect
       style="fill:#0088aa;fill-opacity:1;stroke-width:0.2147902"
       id="rect64"
       width="18.503656"
       height="5.7701693"
       x="15.3407"
       y="91.6987"
       ry="2.7559016" />
    <rect
       style="fill:#0088aa;stroke-width:0.47534299"
       id="rect3921"
       width="89.796211"
       height="5.8233562"
       x="7.6726584"
       y="-20.415028"
       ry="2.7813048"
       transform="rotate(90)" />
    <rect
       style="fill:#c83737;fill-opacity:1;stroke-width:0.23473386"
       id="rect56"
       width="22.099377"
       height="5.7701693"
       x="18.624001"
       y="87.726051"
       ry="2.7559016" />
    <rect
       ry="2.7559016"
       y="7.7214894"
       x="18.624001"
       height="5.7701693"
       width="21.698999"
       id="rect60"
       style="fill:#c83737;fill-opacity:1;stroke-width:0.23259778" />
    <path
       sodipodi:nodetypes="cssssssssc"
       inkscape:connector-curvature="0"
       id="path65"
       d="m 30.879873,20.545131 -10.598386,0.01653 c -0.413684,6.46e-4 -0.08615,-0.663435 -0.06713,-2.044833 l 0.03317,-2.408105 c 0.02103,-1.526628 -0.454883,-1.282447 -0.0853,-1.284158 l 10.717637,-0.04961 c 1.531429,-0.0071 2.764337,1.229132 2.764337,2.755902 v 0.258366 c 0,1.526769 -1.232967,2.770667 -2.764337,2.755901 z"
       style="fill:#0088aa;fill-opacity:1;stroke-width:0.25429711" />
    <path
       style="fill:#0088aa;fill-opacity:1;stroke-width:0.27464697"
       d="m 5.6834538,14.791455 12.3625032,-0.01653 c 0.482541,-6.46e-4 0.10049,0.663435 0.0783,2.044833 l -0.03869,2.408105 c -0.02453,1.526628 0.530598,1.282447 0.0995,1.284158 L 5.6834648,20.561631 C 3.897127,20.568731 2.459,19.332499 2.459,17.805729 v -0.258366 c 0,-1.526769 1.438196,-2.770667 3.2244648,-2.755901 z"
       id="path52"
       inkscape:connector-curvature="0"
       sodipodi:nodetypes="cssssssssc" />
    <path
       sodipodi:nodetypes="cssssssssc"
       inkscape:connector-curvature="0"
       id="path60"
       d="m 10.734745,87.727712 10.770939,0.01654 c 0.412423,6.33e-4 3.335597,-0.0456 3.764625,1.267619 l 0.921921,2.821932 c 0.474133,1.451285 -2.461853,1.66451 -2.830314,1.664496 L 10.734745,93.497828 C 9.2079752,93.497771 7.9788426,92.268744 7.9788426,90.741974 v -0.258366 c 0,-1.526769 1.2292036,-2.770667 2.7559024,-2.755901 z"
       style="fill:#c83737;fill-opacity:1;stroke-width:0.25390878" />
    <path
       sodipodi:nodetypes="cssssssssc"
       inkscape:connector-curvature="0"
       id="path47"
       d="m 6.5866052,87.726006 14.7591928,0.0083 c 0.578002,3.24e-4 0.169254,0.638631 0.142669,2.020029 l -0.04635,2.408105 c -0.02938,1.526628 0.801264,1.323769 0.284874,1.32408 L 5.6396037,93.49622 C 3.4998747,93.49752 2.724261,92.267072 2.724261,90.740302 v -0.258366 c 0,-1.526769 0.8949017,-2.839576 3.033717,-2.779287 z"
       style="fill:#c83737;fill-opacity:1;stroke-width:0.30058751" />
    <rect
       style="fill:#808080;stroke-width:0.32012233"
       id="rect68"
       width="41.101791"
       height="5.7701693"
       x="1.8159618"
       y="87.721489"
       ry="2.7559016" />
    <g
       aria-label="qwelk"
       style="font-style:normal;font-variant:normal;font-weight:bold;font-stretch:normal;font-size:2.82222223px;line-height:1.25;font-family:'DejaVu Sans';-inkscape-font-specification:'DejaVu Sans, Bold';font-variant-ligatures:normal;font-variant-caps:normal;font-variant-numeric:normal;font-feature-settings:normal;text-align:start;letter-spacing:0px;word-spacing:0px;writing-mode:lr-tb;text-anchor:start;fill:#f2f2f2;fill-opacity:1;stroke:none;stroke-width:0.26458332"
       id="text4057"
       transform="translate(16.404171,2.1166667)">
      <path
         d="m 11.498968,95.707734 q -0.157097,0 -0.241157,0.115755 -0.08268,0.115755 -0.08268,0.336241 0,0.220486 0.08268,0.336242 0.08406,0.115755 0.241157,0.115755 0.158474,0 0.241156,-0.115755 0.08406,-0.115756 0.08406,-0.336242 0,-0.220486 -0.08406,-0.336241 -0.08268,-0.115755 -0.241156,-0.115755 z m 0.325217,0.999078 q -0.101975,0.136425 -0.224621,0.199815 -0.122645,0.06339 -0.283875,0.06339 -0.285254,0 -0.468533,-0.225998 -0.18328,-0.227377 -0.18328,-0.584289 0,-0.356912 0.18328,-0.581532 0.183279,-0.225998 0.468533,-0.225998 0.16123,0 0.283875,0.06339 0.122646,0.06339 0.224621,0.199815 v -0.228754 h 0.496093 v 2.130447 h -0.496093 z"
         id="path29"
         inkscape:connector-curvature="0" />
      <path
         d="m 12.659276,95.386651 h 0.479557 l 0.259071,1.063845 0.26045,-1.063845 h 0.412033 l 0.259071,1.052821 0.260449,-1.052821 h 0.479558 l -0.406522,1.543403 h -0.538812 l -0.26045,-1.06109 -0.259071,1.06109 h -0.538813 z"
         id="path31"
         inkscape:connector-curvature="0" />
      <path
         d="m 16.944975,96.154218 v 0.14056 h -1.153418 q 0.01791,0.173633 0.125401,0.260449 0.107487,0.08682 0.300413,0.08682 0.155718,0 0.318326,-0.04548 0.163987,-0.04685 0.336242,-0.140559 v 0.380338 q -0.175011,0.06615 -0.350022,0.09922 -0.175011,0.03445 -0.350022,0.03445 -0.418923,0 -0.651812,-0.212218 -0.23151,-0.213596 -0.23151,-0.598069 0,-0.377582 0.227376,-0.593934 0.228754,-0.216352 0.628386,-0.216352 0.363802,0 0.581532,0.219108 0.219108,0.219108 0.219108,0.585667 z m -0.507118,-0.163986 q 0,-0.14056 -0.08268,-0.225999 -0.0813,-0.08682 -0.213596,-0.08682 -0.143315,0 -0.232888,0.0813 -0.08957,0.07993 -0.111621,0.231511 z"
         id="path33"
         inkscape:connector-curvature="0" />
      <path
         d="m 17.317045,94.785826 h 0.493338 v 2.144228 h -0.493338 z"
         id="path35"
         inkscape:connector-curvature="0" />
      <path
         d="m 18.287184,94.785826 h 0.493338 v 1.167199 l 0.567751,-0.566374 h 0.573264 l -0.753787,0.708312 0.813043,0.835091 H 19.382724 L 18.780522,96.28651 v 0.643544 h -0.493338 z"
         id="path37"
         inkscape:connector-curvature="0" />
    </g>
    <path
       style="fill:#0088aa;fill-opacity:1;stroke-width:0.25225314"
       d="m 30.924118,13.452942 -11.295372,0.01653 C 19.221683,13.470068 16.544939,8.7710642 19.417441,11.93727 L 16.445621,8.6615917 C 15.425838,7.5375371 16.779265,7.6799471 20.872099,7.6807652 l 10.052019,0.00201 c 1.506923,3.012e-4 2.720078,1.229132 2.720078,2.7559028 v 0.258366 c 0,1.526769 -1.213225,2.770667 -2.720078,2.755901 z"
       id="path81"
       inkscape:connector-curvature="0"
       sodipodi:nodetypes="cssssssssc" />
    <path
       sodipodi:nodetypes="cssssssssc"
       inkscape:connector-curvature="0"
       id="path49"
       d="m 5.021882,13.442168 10.372684,0.01653 c 0.373811,5.96e-4 -0.148734,-1.120765 0.194045,-1.532202 l 2.72906,-3.2756794 c 0.93648,-1.124054 -0.30639,-0.981644 -4.064893,-0.980826 l -9.230896,0.002 C 3.6380549,7.6722916 2.524,8.9011226 2.524,10.427894 v 0.258366 c 0,1.526769 1.1141199,2.770667 2.497882,2.755901 z"
       style="fill:#0088aa;fill-opacity:1;stroke-width:0.24173079" />
    <path
       style="fill:#c83737;fill-opacity:1;stroke-width:0.30058751"
       d="m 6.5228528,80.391747 14.7591932,0.0083 c 0.578002,3.24e-4 0.169254,0.638631 0.142669,2.020029 l -0.04635,2.408105 c -0.02938,1.526628 0.801264,1.323769 0.284874,1.32408 l -16.0873877,0.0097 c -2.139729,0.0013 -2.9153427,-1.229148 -2.9153427,-2.755918 v -0.258366 c 0,-1.526769 0.8949017,-2.839576 3.033717,-2.779287 z"
       id="rect57"
       inkscape:connector-curvature="0"
       sodipodi:nodetypes="cssssssssc" />
    <rect
       ry="2.7559016"
       y="80.391747"
       x="1.582101"
       height="5.7701693"
       width="41.335651"
       id="rect66"
       style="fill:#808080;stroke-width:0.32103175" />
    <rect
       transform="rotate(90)"
       ry="2.7813048"
       y="-47.073357"
       x="8.1308146"
       height="5.8233562"
       width="85.460838"
       id="rect76"
       style="fill:#a95087;fill-opacity:1;stroke:#c83737;stroke-width:0;stroke-miterlimit:4;stroke-dasharray:none;stroke-opacity:1" />
    <rect
       transform="rotate(90)"
       ry="2.7813048"
       y="-33.844357"
       x="7.6726584"
       height="5.8233562"
       width="89.796211"
       id="rect54"
       style="fill:#0088aa;stroke-width:0.47534299" />
    <rect
       style="fill:#c83737;stroke-width:0.47366941"
       id="rect58"
       width="89.165001"
       height="5.8233562"
       x="8.1308146"
       y="-40.523357"
       ry="2.7813048"
       transform="rotate(90)" />
    <rect
       ry="2.7559016"
       y="1.595412"
       x="-93.171562"
       height="5.7701693"
       width="12.703994"
       id="rect72"
       style="fill:#808080;fill-opacity:1;stroke-width:0.17797369"
       transform="rotate(-90)" />
    <rect
       transform="rotate(-90)"
       style="fill:#808080;fill-opacity:1;stroke-width:0.17797369"
       id="rect74"
       width="12.703994"
       height="5.7701693"
       x="-93.265106"
       y="8.165"
       ry="2.7559016" />
    <rect
       transform="rotate(90)"
       ry="1.935925"
       y="-59.567429"
       x="9.0154886"
       height="4.0533433"
       width="83.558891"
       id="rect80"
       style="fill:#c83737;stroke:#0088aa;stroke-width:1.76965666;stroke-linecap:butt;stroke-linejoin:round;stroke-miterlimit:4;stroke-dasharray:none;stroke-opacity:1;paint-order:fill markers stroke" />
    <rect
       transform="rotate(90)"
       ry="2.7813048"
       y="-53.773357"
       x="51.109806"
       height="5.8233562"
       width="42.415695"
       id="rect4957"
       style="fill:#0088aa;fill-opacity:1;stroke-width:0.32669419" />
    <text
       xml:space="preserve"
       style="font-style:normal;font-variant:normal;font-weight:bold;font-stretch:normal;font-size:3.88055563px;line-height:1.25;font-family:Calibri;-inkscape-font-specification:'Calibri, Bold';font-variant-ligatures:normal;font-variant-caps:normal;font-variant-numeric:normal;font-feature-settings:normal;text-align:start;letter-spacing:0px;word-spacing:0px;writing-mode:lr-tb;text-anchor:start;fill:#f2f2f2;fill-opacity:1;stroke:none;stroke-width:0.26458332"
       x="-91.282181"
       y="5.881721"
       id="text4985"
       transform="rotate(-90)"><tspan
         sodipodi:role="line"
         id="tspan4983"
         x="-91.282181"
         y="5.881721"
         style="font-style:normal;font-variant:normal;font-weight:bold;font-stretch:normal;font-size:3.88055563px;font-family:Calibri;-inkscape-font-specification:'Calibri, Bold';font-variant-ligatures:normal;font-variant-caps:normal;font-variant-numeric:normal;font-feature-settings:normal;text-align:start;writing-mode:lr-tb;text-anchor:start;fill:#f2f2f2;fill-opacity:1;stroke-width:0.26458332">RULE</tspan></text>
    <text
       transform="rotate(-90)"
       id="text4989"
       y="12.32023"
       x="-90.849876"
       style="font-style:normal;font-variant:normal;font-weight:bold;font-stretch:normal;font-size:3.88055563px;line-height:1.25;font-family:Calibri;-inkscape-font-specification:'Calibri, Bold';font-variant-ligatures:normal;font-variant-caps:normal;font-variant-numeric:normal;font-feature-settings:normal;text-align:start;letter-spacing:0px;word-spacing:0px;writing-mode:lr-tb;text-anchor:start;fill:#f2f2f2;fill-opacity:1;stroke:none;stroke-width:0.26458332"
       xml:space="preserve"><tspan
         sodipodi:role="line"
         id="tspan4991"
         x="-90.849876"
         y="12.32023">TRIG</tspan></text>
    <text
       xml:space="preserve"
       style="font-style:normal;font-variant:normal;font-weight:bold;font-stretch:normal;font-size:3.88055563px;line-height:1.25;font-family:Calibri;-inkscape-font-specification:'Calibri, Bold';font-variant-ligatures:normal;font-variant-caps:normal;font-variant-numeric:normal;font-feature-settings:normal;text-align:start;letter-spacing:0px;word-spacing:0px;writing-mode:lr-tb;text-anchor:start;fill:#f2f2f2;fill-opacity:1;stroke:none;stroke-width:0.26458332"
       x="15.441659"
       y="84.590309"
       id="text4999"><tspan
         sodipodi:role="line"
         id="tspan5001"
         x="15.441659"
         y="84.590309">VALUE</tspan></text>
    <text
       id="text5005"
       y="91.667908"
       x="15.177075"
       style="font-style:normal;font-variant:normal;font-weight:bold;font-stretch:normal;font-size:3.88055563px;line-height:1.25;font-family:Calibri;-inkscape-font-specification:'Calibri, Bold';font-variant-ligatures:normal;font-variant-caps:normal;font-variant-numeric:normal;font-feature-settings:normal;text-align:start;letter-spacing:0px;word-spacing:0px;writing-mode:lr-tb;text-anchor:start;fill:#f2f2f2;fill-opacity:1;stroke:none;stroke-width:0.26458332"
       xml:space="preserve"><tspan
         sodipodi:role="line"
         id="tspan5007"
         x="15.177075"
         y="91.667908">COUNT</tspan></text>
    <text
       transform="rotate(-90)"
       id="text5011"
       y="45.334087"
       x="-17.901001"
       style="font-style:normal;font-variant:normal;font-weight:bold;font-stretch:normal;font-size:3.88055563px;line-height:1.25;font-family:Calibri;-inkscape-font-specification:'Calibri, Bold';font-variant-ligatures:normal;font-variant-caps:normal;font-variant-numeric:normal;font-feature-settings:normal;text-align:start;letter-spacing:0px;word-spacing:0px;writing-mode:lr-tb;text-anchor:start;fill:#f2f2f2;fill-opacity:1;stroke:none;stroke-width:0.26458332"
       xml:space="preserve"><tspan
         sodipodi:role="line"
         id="tspan5013"
         x="-17.901001"
         y="45.334087">AND</tspan></text>
    <text
       xml:space="preserve"
       style="font-style:normal;font-variant:normal;font-weight:bold;font-stretch:normal;font-size:3.88055563px;line-height:1.25;font-family:Calibri;-inkscape-font-specification:'Calibri, Bold';font-variant-ligatures:normal;font-variant-caps:normal;font-variant-numeric:normal;font-feature-settings:normal;text-align:start;letter-spacing:0px;word-spacing:0px;writing-mode:lr-tb;text-anchor:start;fill:#f2f2f2;fill-opacity:1;stroke:none;stroke-width:0.26458332"
       x="-17.488075"
       y="52.14711"
       id="text5017"
       transform="rotate(-90)"><tspan
         sodipodi:role="line"
         id="tspan5019"
         x="-17.488075"
         y="52.14711">XOR</tspan></text>
    <text
       transform="rotate(-90)"
       id="text5023"
       y="58.761692"
       x="-16.45714"
       style="font-style:normal;font-variant:normal;font-weight:bold;font-stretch:normal;font-size:3.88055563px;line-height:1.25;font-family:Calibri;-inkscape-font-specification:'Calibri, Bold';font-variant-ligatures:normal;font-variant-caps:normal;font-variant-numeric:normal;font-feature-settings:normal;text-align:start;letter-spacing:0px;word-spacing:0px;writing-mode:lr-tb;text-anchor:start;fill:#f2f2f2;fill-opacity:1;stroke:none;stroke-width:0.26458332"
       xml:space="preserve"><tspan
         sodipodi:role="line"
         id="tspan5025"
         x="-16.45714"
         y="58.761692">OR</tspan></text>
    <text
       xml:space="preserve"
       style="font-style:normal;font-variant:normal;font-weight:bold;font-stretch:normal;font-size:3.88055563px;line-height:1.25;font-family:Calibri;-inkscape-font-specification:'Calibri, Bold';font-variant-ligatures:normal;font-variant-caps:normal;font-variant-numeric:normal;font-feature-settings:normal;text-align:start;letter-spacing:0px;word-spacing:0px;writing-mode:lr-tb;text-anchor:start;fill:#f2f2f2;fill-opacity:1;stroke:none;stroke-width:0.26458332"
       x="17.027981"
       y="18.831821"
       id="text5029"><tspan
         sodipodi:role="line"
         id="tspan5031"
         x="17.027981"
         y="18.831821">STEP</tspan></text>
    <text
       id="text5035"
       y="11.886509"
       x="16.366522"
       style="font-style:normal;font-variant:normal;font-weight:bold;font-stretch:normal;font-size:3.88055563px;line-height:1.25;font-family:Calibri;-inkscape-font-specification:'Calibri, Bold';font-variant-ligatures:normal;font-variant-caps:normal;font-variant-numeric:normal;font-feature-settings:normal;text-align:start;letter-spacing:0px;word-spacing:0px;writing-mode:lr-tb;text-anchor:start;fill:#f2f2f2;fill-opacity:1;stroke:none;stroke-width:0.26458332"
       xml:space="preserve"><tspan
         sodipodi:role="line"
         id="tspan5037"
         x="16.366522"
         y="11.886509">SCAN</tspan></text>
  </g>
</svg>
